<svg id="Layer_1" data-name="Layer 1" xmlns="http://www.w3.org/2000/svg" xmlns:xlink="http://www.w3.org/1999/xlink" viewBox="0 0 152 152"><defs><style>.cls-1{fill:url(#linear-gradient);}.cls-2{fill:#074e72;}.cls-3{fill:url(#linear-gradient-2);}.cls-4{fill:url(#linear-gradient-3);}.cls-5{fill:url(#linear-gradient-4);}.cls-6{fill:url(#linear-gradient-5);}.cls-7{fill:url(#linear-gradient-6);}.cls-8{fill:url(#linear-gradient-7);}.cls-9{fill:url(#linear-gradient-8);}.cls-10{fill:url(#linear-gradient-9);}</style><linearGradient id="linear-gradient" x1="16.32" y1="41.96" x2="144.28" y2="114.94" gradientUnits="userSpaceOnUse"><stop offset="0" stop-color="#87d3ff"/><stop offset="1"/></linearGradient><linearGradient id="linear-gradient-2" x1="32.07" y1="54" x2="117.43" y2="102.68" xlink:href="#linear-gradient"/><linearGradient id="linear-gradient-3" x1="23.63" y1="78.42" x2="128.36" y2="78.42" xlink:href="#linear-gradient"/><linearGradient id="linear-gradient-4" x1="42.58" y1="71.62" x2="107.51" y2="108.65" xlink:href="#linear-gradient"/><linearGradient id="linear-gradient-5" x1="36.17" y1="90.2" x2="115.83" y2="90.2" xlink:href="#linear-gradient"/><linearGradient id="linear-gradient-6" x1="48.32" y1="79.34" x2="102.1" y2="110.01" xlink:href="#linear-gradient"/><linearGradient id="linear-gradient-7" x1="43" y1="94.72" x2="108.99" y2="94.72" xlink:href="#linear-gradient"/><linearGradient id="linear-gradient-8" x1="66.78" y1="105.51" x2="82.66" y2="114.57" gradientUnits="userSpaceOnUse"><stop offset="0.16" stop-color="#87d3ff"/><stop offset="1"/></linearGradient><linearGradient id="linear-gradient-9" x1="65.13" y1="109.74" x2="83.25" y2="109.74" xlink:href="#linear-gradient"/></defs><title>handSymbol</title><path class="cls-1" d="M76,149a73,73,0,1,1,73-73A73.08,73.08,0,0,1,76,149Z"/><path class="cls-2" d="M76,6A70,70,0,1,1,6,76,70.08,70.08,0,0,1,76,6m0-6a76,76,0,1,0,76,76A76,76,0,0,0,76,0Z"/><path class="cls-3" d="M23.84,70a34,34,0,0,1-.11-6.44A2.74,2.74,0,0,1,24,62.37c.51-.9,1.79-1,2.8-.76,3.83.81,6.75,4,8.63,7.43s3,7.25,4.76,10.74c1.71,3.32,5.75,9.38,9.91,6.3C55,82.48,52,77.26,51,72.62,49.73,67,48.41,61.46,47.6,55.79a189.53,189.53,0,0,1-2.12-27c0-2.34,1-6.5,4.28-5.53,2.56.76,5.12,4.7,6.13,7,5.45,12.26,1.44,27.82,9.15,38.8,1.62,2.3,6.73,6.24,8.14,2,3.12-9.38,4.17-19.26,5.43-29,.64-5,1.33-10,2.37-14.86.75-3.52,1.12-10.55,5.63-11.14,4.82-.62,6.33,4.35,6.61,7.94.18,2.24.88,4.42.5,6.64-.42,2.42-1.33,4.86-1.79,7.31a158.24,158.24,0,0,0-2.23,16.84c-.23,3,.36,5.85-.11,8.75-.41,2.52-2.92,12.58.25,14.24,4.78,2.5,8.66-9.27,9.51-12.24,2.62-9.07,4.89-17.76,9.26-26.24a7.32,7.32,0,0,1,3-3.57c2.68-1.25,5.91,1.21,6.59,4.09s-.38,5.86-1.42,8.63L102.44,86.55c-.47,1.25-.71,3.06.53,3.54,1,.38,2-.51,2.63-1.31q8.55-10.15,16.27-21c.72-1,1.7-2.14,2.92-1.93a2.73,2.73,0,0,1,1.49,1c2.68,2.94,2.55,7.62.83,11.2s-4.7,6.37-7.51,9.18A139.44,139.44,0,0,0,93.9,122.84c-3.19,6.34-6.38,13.42-12.77,16.5a17.42,17.42,0,0,1-11.32,1c-3.93-.87-7.76-1.93-11.76-2.79A22.22,22.22,0,0,1,50.87,135a18.87,18.87,0,0,1-5.17-5.17,46.47,46.47,0,0,1-7.48-18.7c-1.64-8.84-6.34-16.75-9.79-25A59,59,0,0,1,23.84,70Z"/><path class="cls-4" d="M87.4,17c3.84,0,4.65,4.95,4.81,7.07.06.77.18,1.54.3,2.27a12.7,12.7,0,0,1,.21,4.12c-.21,1.2-.54,2.4-.89,3.66s-.67,2.41-.9,3.64a159.83,159.83,0,0,0-2.24,16.95,32.39,32.39,0,0,0,0,4,22.86,22.86,0,0,1-.11,4.71c-.05.33-.14.79-.25,1.34-1.15,5.88-2.12,12.3,1,13.95a3.85,3.85,0,0,0,1.8.46c1.24,0,5.57-1,9.14-13.31l.78-2.71c2.33-8.13,4.53-15.81,8.42-23.35A6.52,6.52,0,0,1,112,36.64a2.56,2.56,0,0,1,1.09-.24,4.74,4.74,0,0,1,4.1,3.66c.63,2.69-.49,5.66-1.39,8.05L101.51,86.19c-.88,2.33-.44,4.23,1.11,4.82a2.33,2.33,0,0,0,.84.16,4,4,0,0,0,2.92-1.76c5.69-6.76,11.18-13.83,16.32-21,.27-.38,1.1-1.54,1.82-1.54h.12a1.8,1.8,0,0,1,.91.64c2.49,2.73,2.13,7,.67,10.1s-4,5.64-6.51,8.1l-.81.8A139.93,139.93,0,0,0,93,122.39l-.66,1.31c-3,5.91-6,12-11.66,14.75a14.81,14.81,0,0,1-6.49,1.4,19.33,19.33,0,0,1-4.19-.47c-1.82-.41-3.66-.86-5.44-1.3-2.05-.51-4.18-1-6.32-1.49a21.49,21.49,0,0,1-6.86-2.42,17.61,17.61,0,0,1-4.89-4.91,45.4,45.4,0,0,1-7.31-18.3c-1.19-6.43-4-12.4-6.69-18.18-1.07-2.29-2.18-4.66-3.16-7a57.1,57.1,0,0,1-4.51-15.91,33.2,33.2,0,0,1-.11-6.25,2,2,0,0,1,.14-.73c.18-.32.76-.35,1-.35a3.57,3.57,0,0,1,.73.08c4.11.87,6.75,4.71,8,6.93A52.52,52.52,0,0,1,37,75.08c.69,1.71,1.4,3.48,2.26,5.16,1.19,2.31,4.39,7.69,8.43,7.69a4.94,4.94,0,0,0,3-1c4.5-3.33,3.16-7.85,2-11.83-.27-.92-.53-1.79-.72-2.64l-.46-2c-1.09-4.81-2.21-9.79-2.92-14.74a188.79,188.79,0,0,1-2.11-26.82c0-1.81.7-4.69,2.35-4.69a2.28,2.28,0,0,1,.64.1c2.09.62,4.52,4.19,5.5,6.41C57.33,36,57.87,42.09,58.41,48c.68,7.53,1.38,15.32,5.8,21.63,1.22,1.74,4.19,4.31,6.7,4.31a3.28,3.28,0,0,0,3.21-2.55C77,62.8,78.12,53.73,79.23,45q.18-1.39.36-2.78c.61-4.76,1.3-9.82,2.36-14.78.12-.58.23-1.23.35-1.93.57-3.39,1.36-8,4.43-8.42a5.28,5.28,0,0,1,.67,0m0-1a6.25,6.25,0,0,0-.8.05c-4.51.58-4.88,7.61-5.63,11.14-1,4.91-1.73,9.88-2.37,14.86-1.26,9.76-2.31,19.64-5.43,29a2.31,2.31,0,0,1-2.26,1.87c-2.07,0-4.78-2.32-5.88-3.89-7.71-11-3.7-26.54-9.15-38.8-1-2.27-3.57-6.21-6.13-7a3.25,3.25,0,0,0-.93-.15c-2.53,0-3.31,3.57-3.35,5.67a189.53,189.53,0,0,0,2.12,27C48.41,61.46,49.73,67,51,72.62c1,4.63,4,9.85-.88,13.45a4,4,0,0,1-2.38.85c-3.26,0-6.16-4.46-7.54-7.14C38.4,76.3,37.31,72.48,35.43,69s-4.79-6.62-8.63-7.43a4.56,4.56,0,0,0-.93-.1,2,2,0,0,0-1.87.86,2.74,2.74,0,0,0-.27,1.15A34,34,0,0,0,23.84,70a59,59,0,0,0,4.58,16.19c3.45,8.24,8.15,16.15,9.79,25a46.47,46.47,0,0,0,7.48,18.7A18.87,18.87,0,0,0,50.87,135,22.22,22.22,0,0,0,58,137.56c4,.86,7.82,1.91,11.76,2.79a20.34,20.34,0,0,0,4.4.5,15.87,15.87,0,0,0,6.92-1.5c6.39-3.08,9.58-10.17,12.77-16.5a139.44,139.44,0,0,1,25.71-35.62c2.81-2.82,5.8-5.6,7.51-9.18s1.85-8.26-.83-11.2a2.73,2.73,0,0,0-1.49-1l-.29,0c-1.09,0-2,1-2.63,2q-7.71,10.8-16.27,21a3.28,3.28,0,0,1-2.15,1.4,1.33,1.33,0,0,1-.48-.09c-1.24-.48-1-2.29-.53-3.54l14.35-38.08c1-2.77,2.1-5.75,1.42-8.63-.56-2.35-2.81-4.43-5.08-4.43a3.55,3.55,0,0,0-1.51.33,7.32,7.32,0,0,0-3,3.57c-4.37,8.48-6.64,17.16-9.26,26.24-.78,2.69-4,12.58-8.18,12.58a2.85,2.85,0,0,1-1.33-.35c-3.17-1.66-.66-11.72-.25-14.24.47-2.9-.12-5.8.11-8.75A158.24,158.24,0,0,1,91.91,38c.46-2.45,1.37-4.9,1.79-7.31.38-2.22-.32-4.4-.5-6.64-.27-3.39-1.62-8-5.81-8Z"/><path class="cls-5" d="M36.33,83.76a25.89,25.89,0,0,1-.08-4.9,2.08,2.08,0,0,1,.21-.87c.39-.69,1.36-.74,2.13-.58,2.91.62,5.13,3,6.56,5.65s2.26,5.52,3.62,8.17S53.13,98.36,56.3,96c3.7-2.74,1.46-6.71.67-10.23-1-4.25-2-8.49-2.58-12.8a144.16,144.16,0,0,1-1.62-20.52c0-1.78.77-4.95,3.25-4.2,1.95.58,3.9,3.58,4.66,5.3,4.14,9.33,1.09,21.16,7,29.51,1.23,1.75,5.12,4.75,6.19,1.53C76.22,77.47,77,70,78,62.53c.49-3.78,1-7.57,1.8-11.3.57-2.68.85-8,4.28-8.47,3.66-.47,4.81,3.31,5,6,.13,1.7.67,3.36.38,5.05s-1,3.7-1.36,5.56a120.36,120.36,0,0,0-1.69,12.81c-.17,2.24.28,4.45-.08,6.65-.31,1.92-2.22,9.57.19,10.83,3.63,1.9,6.58-7,7.24-9.31,2-6.9,3.72-13.51,7-20a5.57,5.57,0,0,1,2.3-2.71c2-1,4.5.92,5,3.11s-.29,4.46-1.08,6.57l-10.91,29c-.36.95-.54,2.33.41,2.69.75.29,1.49-.39,2-1q6.5-7.72,12.37-15.94c.55-.76,1.3-1.62,2.22-1.47a2.08,2.08,0,0,1,1.13.73c2,2.24,1.94,5.79.63,8.52s-3.58,4.84-5.71,7A106.06,106.06,0,0,0,89.61,124c-2.43,4.82-4.85,10.21-9.71,12.55a13.25,13.25,0,0,1-8.61.76c-3-.66-5.9-1.47-8.94-2.12a16.9,16.9,0,0,1-5.46-1.94A14.35,14.35,0,0,1,53,129.3a35.35,35.35,0,0,1-5.69-14.23c-1.25-6.72-4.83-12.74-7.45-19A44.83,44.83,0,0,1,36.33,83.76Z"/><path class="cls-6" d="M84.67,43.72c2.72,0,3.3,3.61,3.42,5.16,0,.6.14,1.18.23,1.75a9.49,9.49,0,0,1,.16,3.06c-.16.9-.41,1.81-.67,2.76s-.51,1.84-.69,2.79a121.81,121.81,0,0,0-1.71,12.92,24.83,24.83,0,0,0,0,3,17.21,17.21,0,0,1-.08,3.53c0,.25-.11.6-.19,1-.89,4.56-1.63,9.53.9,10.86a3.17,3.17,0,0,0,1.48.38c1.78,0,3.4-1.49,5-4.57a35.39,35.39,0,0,0,2.22-5.73l.59-2.06c1.77-6.17,3.44-12,6.38-17.72a4.78,4.78,0,0,1,1.83-2.27,1.71,1.71,0,0,1,.73-.16,3.4,3.4,0,0,1,2.89,2.6c.47,2-.37,4.2-1,6L101.5,79.24,95.18,96c-.72,1.91-.33,3.47,1,4a2,2,0,0,0,.72.14,3.25,3.25,0,0,0,2.4-1.42c4.33-5.15,8.51-10.53,12.42-16,.66-.93,1-1.07,1.19-1.07H113c.1,0,.27.1.56.41,1.82,2,1.55,5.16.47,7.42a23.43,23.43,0,0,1-4.91,6.1l-.61.61a106.67,106.67,0,0,0-19.74,27.35l-.5,1C86,129,83.69,133.6,79.47,135.63a11,11,0,0,1-4.83,1,14.47,14.47,0,0,1-3.13-.35c-1.38-.31-2.78-.65-4.13-1-1.56-.39-3.18-.78-4.81-1.14a15.73,15.73,0,0,1-5.14-1.81,13.17,13.17,0,0,1-3.65-3.67,34.29,34.29,0,0,1-5.52-13.83c-.91-4.92-3-9.48-5.11-13.89-.81-1.74-1.66-3.54-2.4-5.32a43.21,43.21,0,0,1-3.41-12,25,25,0,0,1-.08-4.71,1.63,1.63,0,0,1,.08-.46c0-.07.23-.15.55-.15a2.47,2.47,0,0,1,.5.06c3,.64,5,3.5,5.89,5.15a39.17,39.17,0,0,1,1.88,4.2c.52,1.3,1.07,2.65,1.73,3.95.92,1.8,3.42,6,6.62,6a4,4,0,0,0,2.4-.84c3.56-2.63,2.47-6.31,1.59-9.26-.21-.7-.4-1.35-.54-2L57.6,84c-.83-3.66-1.68-7.43-2.22-11.19a143.36,143.36,0,0,1-1.61-20.36c0-1.38.52-3.33,1.55-3.33a1.5,1.5,0,0,1,.42.07c1.51.45,3.3,3.1,4,4.75,1.78,4,2.19,8.64,2.6,13.12.52,5.76,1.05,11.72,4.46,16.57,1,1.36,3.3,3.38,5.29,3.38a2.72,2.72,0,0,0,2.67-2.11c2.18-6.55,3.05-13.46,3.9-20.14L79,62.66c.47-3.61,1-7.46,1.79-11.22.09-.44.18-.94.27-1.48.42-2.5,1-5.93,3.16-6.21a3.78,3.78,0,0,1,.48,0m0-1a4.76,4.76,0,0,0-.61,0c-3.43.44-3.71,5.79-4.28,8.47C79,55,78.46,58.75,78,62.53,77,70,76.22,77.47,73.84,84.6A1.76,1.76,0,0,1,72.13,86c-1.57,0-3.64-1.76-4.47-3-5.86-8.35-2.82-20.19-7-29.51-.77-1.72-2.72-4.72-4.66-5.3a2.47,2.47,0,0,0-.71-.11c-1.92,0-2.52,2.71-2.55,4.32A144.16,144.16,0,0,0,54.39,73C55,77.29,56,81.54,57,85.78c.79,3.52,3,7.49-.67,10.23a3,3,0,0,1-1.81.65c-2.48,0-4.68-3.39-5.73-5.43-1.36-2.65-2.19-5.55-3.62-8.17s-3.65-5-6.56-5.65a3.47,3.47,0,0,0-.71-.08,1.54,1.54,0,0,0-1.42.65,2.08,2.08,0,0,0-.21.87,25.89,25.89,0,0,0,.08,4.9,44.83,44.83,0,0,0,3.49,12.31c2.62,6.27,6.2,12.28,7.45,19A35.35,35.35,0,0,0,53,129.3a14.35,14.35,0,0,0,3.94,3.93,16.9,16.9,0,0,0,5.46,1.94c3,.65,6,1.46,8.94,2.12a15.47,15.47,0,0,0,3.35.38,12.07,12.07,0,0,0,5.26-1.14c4.86-2.34,7.29-7.73,9.71-12.55a106.06,106.06,0,0,1,19.56-27.09c2.13-2.14,4.41-4.26,5.71-7s1.4-6.29-.63-8.52a2.08,2.08,0,0,0-1.13-.73l-.22,0c-.83,0-1.5.78-2,1.49Q105,90.34,98.52,98.07a2.49,2.49,0,0,1-1.64,1.07,1,1,0,0,1-.37-.07c-.95-.36-.76-1.74-.41-2.69l10.91-29c.79-2.11,1.6-4.37,1.08-6.57a4.38,4.38,0,0,0-3.86-3.37,2.7,2.7,0,0,0-1.15.25,5.57,5.57,0,0,0-2.3,2.71c-3.32,6.45-5.05,13.05-7,20-.59,2-3.06,9.57-6.22,9.57a2.17,2.17,0,0,1-1-.26c-2.41-1.26-.5-8.91-.19-10.83.36-2.2-.09-4.41.08-6.65A120.36,120.36,0,0,1,88.1,59.41c.35-1.87,1-3.72,1.36-5.56s-.24-3.35-.38-5.05c-.2-2.58-1.24-6.08-4.42-6.08Z"/><path class="cls-7" d="M43.14,89.39a21.44,21.44,0,0,1-.07-4.06,1.72,1.72,0,0,1,.17-.72c.32-.57,1.13-.61,1.77-.48,2.41.51,4.25,2.51,5.43,4.68s1.87,4.57,3,6.76,3.62,5.91,6.25,4c3.07-2.27,1.21-5.56.55-8.48-.79-3.52-1.62-7-2.13-10.61a119.41,119.41,0,0,1-1.34-17c0-1.48.63-4.1,2.69-3.48,1.61.48,3.23,3,3.86,4.39,3.43,7.73.91,17.53,5.76,24.45,1,1.45,4.24,3.93,5.13,1.27,2-5.91,2.63-12.13,3.42-18.28.4-3.13.84-6.27,1.5-9.36.47-2.22.7-6.65,3.55-7,3-.39,4,2.74,4.17,5a16.78,16.78,0,0,1,.31,4.18c-.26,1.52-.84,3.06-1.13,4.61a99.69,99.69,0,0,0-1.4,10.61c-.14,1.86.23,3.69-.07,5.51-.26,1.59-1.84,7.93.16,9,3,1.58,5.45-5.84,6-7.71,1.65-5.72,3.08-11.19,5.84-16.53a4.61,4.61,0,0,1,1.9-2.25c1.69-.79,3.72.76,4.15,2.58s-.24,3.69-.9,5.44l-9,24c-.3.79-.45,1.93.34,2.23.62.24,1.23-.32,1.66-.83Q100,94.85,104.9,88c.45-.63,1.07-1.35,1.84-1.22a1.72,1.72,0,0,1,.94.6c1.69,1.85,1.6,4.8.52,7.06s-3,4-4.73,5.79a87.85,87.85,0,0,0-16.2,22.44c-2,4-4,8.46-8,10.4a11,11,0,0,1-7.13.63c-2.48-.55-4.89-1.21-7.41-1.76a14,14,0,0,1-4.52-1.61,11.89,11.89,0,0,1-3.26-3.26,29.28,29.28,0,0,1-4.71-11.78c-1-5.57-4-10.55-6.17-15.74A37.14,37.14,0,0,1,43.14,89.39Z"/><path class="cls-8" d="M83.18,56.4c2.11,0,2.57,2.88,2.66,4.12,0,.5.12,1,.19,1.46a7.74,7.74,0,0,1,.13,2.48c-.13.74-.33,1.48-.55,2.27S85.19,68.25,85,69a101.07,101.07,0,0,0-1.42,10.72,20.69,20.69,0,0,0,0,2.54,14.13,14.13,0,0,1-.06,2.89c0,.2-.09.49-.16.83-.75,3.84-1.37,8,.84,9.18a2.79,2.79,0,0,0,1.3.33c1.09,0,3.86-.84,6.11-8.65l.49-1.71c1.46-5.1,2.84-9.93,5.28-14.64a3.84,3.84,0,0,1,1.44-1.8,1.25,1.25,0,0,1,.53-.12,2.63,2.63,0,0,1,2.23,2c.35,1.46-.19,3.07-.86,4.86l-6,16-3,8c-.63,1.68-.27,3.06.91,3.51a1.83,1.83,0,0,0,.66.12,2.85,2.85,0,0,0,2.12-1.24c3.59-4.27,7.06-8.73,10.3-13.27.54-.76.79-.81.86-.81h0s.13,0,.36.29c1.45,1.6,1.23,4.14.36,6a19.28,19.28,0,0,1-4,5l-.51.51a88.53,88.53,0,0,0-16.38,22.7l-.41.82c-1.83,3.67-3.73,7.46-7.17,9.12a9,9,0,0,1-3.93.85,11.81,11.81,0,0,1-2.56-.29c-1.14-.25-2.3-.54-3.42-.82-1.3-.32-2.64-.65-4-.94a12.88,12.88,0,0,1-4.2-1.48,10.75,10.75,0,0,1-3-3,28.24,28.24,0,0,1-4.54-11.38c-.76-4.09-2.53-7.88-4.25-11.55-.67-1.44-1.37-2.93-2-4.4a35.63,35.63,0,0,1-2.82-9.92,20.55,20.55,0,0,1-.07-3.87c0-.07,0-.26,0-.29a.68.68,0,0,1,.33-.06,1.88,1.88,0,0,1,.38,0c2.44.52,4,2.84,4.76,4.18a32.32,32.32,0,0,1,1.55,3.46C51.54,93.84,52,95,52.55,96c1,1.88,3,5,5.64,5a3.48,3.48,0,0,0,2.09-.73c3-2.25,2.12-5.36,1.38-7.86-.17-.57-.33-1.12-.45-1.64l-.29-1.27c-.68-3-1.39-6.15-1.83-9.25a118.58,118.58,0,0,1-1.33-16.84c0-1.09.42-2.59,1.11-2.59a1.07,1.07,0,0,1,.3,0c1.15.34,2.62,2.45,3.23,3.84,1.46,3.29,1.8,7.11,2.14,10.81.43,4.79.88,9.75,3.72,13.81.66.94,2.63,2.87,4.52,2.87a2.46,2.46,0,0,0,2.37-1.86C77,85,77.7,79.23,78.4,73.69l.22-1.75c.39-3,.82-6.17,1.48-9.28.08-.36.15-.78.23-1.23.34-2,.81-4.79,2.47-5l.38,0m0-1a3.94,3.94,0,0,0-.51,0c-2.84.37-3.07,4.8-3.55,7-.66,3.09-1.09,6.23-1.5,9.36-.79,6.15-1.45,12.37-3.42,18.28a1.46,1.46,0,0,1-1.42,1.18c-1.3,0-3-1.46-3.71-2.45-4.86-6.92-2.33-16.72-5.76-24.45-.63-1.43-2.25-3.91-3.86-4.39a2,2,0,0,0-.59-.09c-1.59,0-2.08,2.25-2.11,3.57a119.41,119.41,0,0,0,1.34,17c.51,3.57,1.35,7.09,2.13,10.61.65,2.92,2.51,6.21-.55,8.48a2.49,2.49,0,0,1-1.5.53c-2.05,0-3.88-2.81-4.75-4.5-1.13-2.19-1.82-4.6-3-6.76s-3-4.17-5.43-4.68a2.87,2.87,0,0,0-.59-.06,1.28,1.28,0,0,0-1.18.54,1.72,1.72,0,0,0-.17.72,21.44,21.44,0,0,0,.07,4.06A37.14,37.14,0,0,0,46,99.59c2.17,5.19,5.14,10.17,6.17,15.74a29.28,29.28,0,0,0,4.71,11.78,11.89,11.89,0,0,0,3.26,3.26A14,14,0,0,0,64.69,132c2.52.54,4.93,1.21,7.41,1.76a12.81,12.81,0,0,0,2.77.31,10,10,0,0,0,4.36-.95c4-1.94,6-6.41,8-10.4a87.85,87.85,0,0,1,16.2-22.44c1.77-1.77,3.65-3.53,4.73-5.79s1.16-5.21-.52-7.06a1.72,1.72,0,0,0-.94-.6h-.18c-.68,0-1.24.65-1.66,1.23q-4.86,6.8-10.25,13.2a2.07,2.07,0,0,1-1.36.88.83.83,0,0,1-.3-.06c-.78-.3-.63-1.44-.34-2.23l9-24c.66-1.75,1.33-3.62.9-5.44a3.63,3.63,0,0,0-3.2-2.79,2.24,2.24,0,0,0-1,.21,4.61,4.61,0,0,0-1.9,2.25c-2.75,5.34-4.19,10.81-5.84,16.53-.49,1.69-2.54,7.93-5.15,7.93a1.79,1.79,0,0,1-.84-.22c-2-1-.42-7.38-.16-9,.3-1.83-.08-3.65.07-5.51A99.69,99.69,0,0,1,86,69.23c.29-1.55.87-3.09,1.13-4.61a16.78,16.78,0,0,0-.31-4.18c-.17-2.13-1-5-3.66-5Z"/><circle class="cls-9" cx="74.19" cy="109.74" r="9.06"/><path class="cls-10" d="M74.19,101.68a8.06,8.06,0,1,1-8.06,8.06,8.07,8.07,0,0,1,8.06-8.06m0-1a9.06,9.06,0,1,0,9.06,9.06,9.06,9.06,0,0,0-9.06-9.06Z"/></svg>